<svg width="16" height="16" fill="none" xmlns="http://www.w3.org/2000/svg"><path d="M13.333 2a.667.667 0 0 0-.666-.667h-2V0H9.333v1.333h-2V0H6v1.333H4V0H2.667v1.333h-2A.667.667 0 0 0 0 2v1.333h13.333V2ZM10.655 7.53a4.662 4.662 0 0 1 2.678 0V4H0v8.667c0 .368.298.666.667.666H7.53a4.66 4.66 0 0 1 3.125-5.803ZM9.333 5.333h1.334v1.334H9.333V5.333ZM6 5.333h1.333v1.334H6V5.333ZM4 12H2.667v-1.333H4V12Zm0-2.667H2.667V8H4v1.333Zm0-2.666H2.667V5.333H4v1.334ZM6 8h1.333v1.333H6V8Z" fill="#FFBD54"/><path d="M12 8a4 4 0 1 0 0 8 4 4 0 0 0 0-8Zm.471 4.471a.671.671 0 0 1-.682.162l-2-.667.422-1.267 1.609.534 1.709-1.709.942.943-2 2.004Z" fill="#FFBD54"/></svg>